<svg class="icon" viewBox="0 0 1024 1024" xmlns="http://www.w3.org/2000/svg" width="200" height="200"><path d="M794.654 1024H597.168a37.303 37.303 0 0 1-36.572-35.84V670.72h-112.64v316.709a36.571 36.571 0 0 1-35.84 36.571H219.751a110.446 110.446 0 0 1-109.715-110.446V590.263H86.631A85.577 85.577 0 0 1 .322 504.686 82.651 82.651 0 0 1 24.46 445.44L395.294 49.737a160.183 160.183 0 0 1 226.011-5.851 10.24 10.24 0 0 0 6.583 5.851L998.722 444.71a86.309 86.309 0 0 1 0 121.417 84.846 84.846 0 0 1-61.44 24.137h-31.451v323.291A111.177 111.177 0 0 1 795.385 1024zm-158.72-73.143h158.72a38.766 38.766 0 0 0 38.765-38.034V553.69a35.109 35.109 0 0 1 35.109-36.571h73.143a10.971 10.971 0 0 0 9.508-5.12 12.434 12.434 0 0 0 0-14.629L573.762 100.937a86.309 86.309 0 0 0-121.417-4.388L73.465 494.446a13.166 13.166 0 0 0 0 17.554 12.434 12.434 0 0 0 9.509 0h63.634a36.571 36.571 0 0 1 36.571 35.84v359.863a38.766 38.766 0 0 0 36.572 43.154h157.988V669.99a73.143 73.143 0 0 1 73.143-73.143h112.64a73.143 73.143 0 0 1 73.143 73.143v280.137z" fill="#999"/></svg>
