<svg class="icon" viewBox="0 0 1024 1024" xmlns="http://www.w3.org/2000/svg" width="200" height="200"><path d="M899.2 379.2a439.68 439.68 0 0 0-19.52-47.04 137.28 137.28 0 0 0-187.84-187.84 439.68 439.68 0 0 0-47.04-19.52 137.28 137.28 0 0 0-265.6 0 439.68 439.68 0 0 0-47.04 19.52 137.28 137.28 0 0 0-187.84 187.84 439.68 439.68 0 0 0-19.52 47.04 137.28 137.28 0 0 0 0 265.6 439.68 439.68 0 0 0 19.52 47.04 137.28 137.28 0 0 0 187.84 187.84 439.68 439.68 0 0 0 47.04 19.52 137.28 137.28 0 0 0 265.6 0 439.68 439.68 0 0 0 47.04-19.52 137.28 137.28 0 0 0 187.84-187.84 439.68 439.68 0 0 0 19.52-47.04 137.28 137.28 0 0 0 0-265.6zm-33.6 186.88a41.6 41.6 0 0 0-38.72 32 314.24 314.24 0 0 1-32 77.76 41.92 41.92 0 0 0 5.12 48A54.08 54.08 0 0 1 723.84 800a41.92 41.92 0 0 0-49.28-5.76 314.24 314.24 0 0 1-77.76 32 41.6 41.6 0 0 0-32 38.72 54.08 54.08 0 0 1-108.16 0 41.6 41.6 0 0 0-32-38.72 314.24 314.24 0 0 1-77.76-32 43.84 43.84 0 0 0-20.8-5.44A42.24 42.24 0 0 0 297.6 800a54.08 54.08 0 0 1-73.6-76.16 41.92 41.92 0 0 0 5.76-49.28 314.24 314.24 0 0 1-32-77.76 41.6 41.6 0 0 0-38.72-32 54.08 54.08 0 0 1 0-108.16 41.6 41.6 0 0 0 38.72-32 314.24 314.24 0 0 1 32-77.76 41.92 41.92 0 0 0-5.76-46.72A54.08 54.08 0 0 1 300.16 224a41.92 41.92 0 0 0 49.28 5.76 314.24 314.24 0 0 1 77.76-32 41.6 41.6 0 0 0 32-38.72 54.08 54.08 0 0 1 108.16 0 41.6 41.6 0 0 0 32 38.72 314.24 314.24 0 0 1 77.76 32 41.92 41.92 0 0 0 46.72-5.76A54.08 54.08 0 0 1 800 300.16a41.92 41.92 0 0 0-5.76 49.28 314.24 314.24 0 0 1 32 77.76 41.6 41.6 0 0 0 38.72 32 54.08 54.08 0 0 1 0 108.16z"/><path d="M512 310.4A201.6 201.6 0 1 0 713.6 512 201.92 201.92 0 0 0 512 310.4zm0 320A118.4 118.4 0 1 1 630.4 512 118.4 118.4 0 0 1 512 630.4z"/></svg>
